<svg width="59" height="59" viewBox="0 0 59 59" fill="none" xmlns="http://www.w3.org/2000/svg">
<path d="M40.5625 22.125C40.5625 25.059 39.397 27.8727 37.3224 29.9474C35.2477 32.022 32.434 33.1875 29.5 33.1875C26.566 33.1875 23.7523 32.022 21.6776 29.9474C19.603 27.8727 18.4375 25.059 18.4375 22.125C18.4375 19.191 19.603 16.3773 21.6776 14.3026C23.7523 12.228 26.566 11.0625 29.5 11.0625C32.434 11.0625 35.2477 12.228 37.3224 14.3026C39.397 16.3773 40.5625 19.191 40.5625 22.125Z" fill="#66A374"/>
<path fill-rule="evenodd" clip-rule="evenodd" d="M0 29.5C0 21.6761 3.10803 14.1727 8.64035 8.64035C14.1727 3.10803 21.6761 0 29.5 0C37.3239 0 44.8273 3.10803 50.3596 8.64035C55.892 14.1727 59 21.6761 59 29.5C59 37.3239 55.892 44.8273 50.3596 50.3596C44.8273 55.892 37.3239 59 29.5 59C21.6761 59 14.1727 55.892 8.64035 50.3596C3.10803 44.8273 0 37.3239 0 29.5ZM29.5 3.6875C24.6391 3.68776 19.877 5.06059 15.7619 7.64798C11.6467 10.2354 8.34585 13.9322 6.23912 18.3128C4.13238 22.6935 3.30542 27.5801 3.85343 32.41C4.40144 37.24 6.30213 41.817 9.33675 45.6144C11.9549 41.3959 17.7184 36.875 29.5 36.875C41.2816 36.875 47.0414 41.3922 49.6632 45.6144C52.6979 41.817 54.5986 37.24 55.1466 32.41C55.6946 27.5801 54.8676 22.6935 52.7609 18.3128C50.6541 13.9322 47.3533 10.2354 43.2381 7.64798C39.123 5.06059 34.3609 3.68776 29.5 3.6875Z" fill="#66A374"/>
</svg>
