<svg width="35" height="35" viewBox="0 0 35 35" fill="none" xmlns="http://www.w3.org/2000/svg">
<path d="M33.6377 10.7188C32.7594 8.62708 31.4817 6.72587 29.8758 5.12112C28.2747 3.51358 26.3728 2.23549 24.2781 1.35941C22.1322 0.457581 19.8266 -0.00469668 17.4982 3.59739e-05H17.4199C15.0516 0.0117547 12.7616 0.480504 10.6047 1.40238C8.52797 2.28744 6.64392 3.5678 5.05788 5.17191C3.46754 6.77305 2.20449 8.66761 1.33911 10.75C0.440787 12.9155 -0.0143949 15.2384 0.000346948 17.582C0.0120905 20.293 0.661898 22.9844 1.87539 25.3906V31.3281C1.87539 32.3203 2.68178 33.125 3.67215 33.125H9.61436C12.0369 34.3449 14.7103 34.9867 17.4238 35H17.506C19.8469 35 22.1134 34.5469 24.2507 33.6602C26.3348 32.7945 28.2296 31.5313 29.8288 29.9414C31.4416 28.3438 32.7099 26.4766 33.5985 24.3945C34.5184 22.2383 34.9882 19.9453 34.9999 17.5781C35.0077 15.1992 34.5458 12.8906 33.6377 10.7188ZM9.68482 19.375C8.6514 19.375 7.80978 18.5352 7.80978 17.5C7.80978 16.4649 8.6514 15.625 9.68482 15.625C10.7183 15.625 11.5599 16.4649 11.5599 17.5C11.5599 18.5352 10.7222 19.375 9.68482 19.375ZM17.4982 19.375C16.4647 19.375 15.6231 18.5352 15.6231 17.5C15.6231 16.4649 16.4647 15.625 17.4982 15.625C18.5316 15.625 19.3732 16.4649 19.3732 17.5C19.3732 18.5352 18.5316 19.375 17.4982 19.375ZM25.3115 19.375C24.2781 19.375 23.4365 18.5352 23.4365 17.5C23.4365 16.4649 24.2781 15.625 25.3115 15.625C26.3449 15.625 27.1866 16.4649 27.1866 17.5C27.1866 18.5352 26.3449 19.375 25.3115 19.375Z" fill="#787880"/>
</svg>
