<svg width="24" height="24" viewBox="0 0 24 24" fill="none" xmlns="http://www.w3.org/2000/svg">
<path d="M1.8575 21.6224C2.44688 22.2126 3.14708 22.6806 3.91787 22.9993C4.68866 23.3181 5.51484 23.4815 6.34894 23.4799C7.18323 23.4814 8.00959 23.3181 8.78058 22.9993C9.55157 22.6805 10.252 22.2126 10.8417 21.6224L14.4348 18.028L12.6382 16.2314L9.04508 19.8258C8.32908 20.5386 7.3599 20.9388 6.34958 20.9388C5.33926 20.9388 4.37008 20.5386 3.65408 19.8258C2.94066 19.1101 2.54006 18.1408 2.54006 17.1303C2.54006 16.1198 2.94066 15.1505 3.65408 14.4348L7.2485 10.8417L5.45193 9.04508L1.8575 12.6382C0.668009 13.8306 0 15.4461 0 17.1303C0 18.8145 0.668009 20.43 1.8575 21.6224ZM21.6224 10.8417C22.8113 9.64896 23.4788 8.03361 23.4788 6.34958C23.4788 4.66555 22.8113 3.0502 21.6224 1.8575C20.43 0.668009 18.8145 0 17.1303 0C15.4461 0 13.8306 0.668009 12.6382 1.8575L9.04508 5.45193L10.8417 7.2485L14.4348 3.65408C15.1508 2.94128 16.12 2.5411 17.1303 2.5411C18.1406 2.5411 19.1098 2.94128 19.8258 3.65408C20.5392 4.36975 20.9398 5.33906 20.9398 6.34958C20.9398 7.3601 20.5392 8.32941 19.8258 9.04508L16.2314 12.6382L18.028 14.4348L21.6224 10.8417Z" fill="#5B5B5B"/>
<path d="M7.24707 18.0293L5.44922 16.2327L16.2325 5.45068L18.0291 7.24853L7.24707 18.0293Z" fill="#5B5B5B"/>
</svg>
