<svg width="68" height="68" viewBox="0 0 68 68" fill="none" xmlns="http://www.w3.org/2000/svg">
<g filter="url(#filter0_d_47_116)">
<circle cx="34" cy="30" r="30" fill="#77625C"/>
</g>
<path d="M31.6962 36.9444H27.5789V34.3263H31.4632C31.5667 33.4362 31.761 32.546 32.1105 31.7083H27.5789V29.0902H33.8196C33.8585 29.051 33.8844 29.0117 33.9232 28.9593C35.5059 27.3679 37.6469 26.4738 39.8791 26.4722H27.5789V23.8541H40.5264V26.4722H39.8791C41.9766 26.4722 44.0741 27.2707 45.7054 28.8546V21.2361C45.7054 20.5417 45.4326 19.8758 44.947 19.3849C44.4614 18.8939 43.8027 18.618 43.1159 18.618H37.7039C37.1601 17.0996 35.7359 16 34.0527 16C32.3695 16 30.9453 17.0996 30.4015 18.618H24.9894C23.5652 18.618 22.3999 19.7962 22.3999 21.2361V39.5624C22.3999 40.2568 22.6727 40.9227 23.1584 41.4137C23.644 41.9046 24.3026 42.1805 24.9894 42.1805H35.4251C34.8943 41.8401 34.3893 41.4605 33.9232 41.0023C32.7579 39.8373 32.0458 38.4236 31.6962 36.9444ZM34.0527 18.618C34.7648 18.618 35.3474 19.2071 35.3474 19.9271C35.3474 20.647 34.7648 21.2361 34.0527 21.2361C33.3406 21.2361 32.7579 20.647 32.7579 19.9271C32.7579 19.2071 33.3406 18.618 34.0527 18.618ZM44.8121 38.1225C45.3818 37.2193 45.7054 36.1328 45.7054 34.9808C45.7054 31.7083 43.1159 29.0902 39.8791 29.0902C36.6422 29.0902 34.0527 31.7083 34.0527 34.9808C34.0527 38.2534 36.6422 40.8714 39.8791 40.8714C41.0055 40.8714 42.0672 40.5442 42.9606 39.9813L47.0002 44L48.7999 42.1805L44.8121 38.1225ZM39.8791 38.2534C39.0206 38.2534 38.1973 37.9086 37.5902 37.2949C36.9832 36.6812 36.6422 35.8488 36.6422 34.9808C36.6422 34.1129 36.9832 33.2805 37.5902 32.6668C38.1973 32.0531 39.0206 31.7083 39.8791 31.7083C40.7375 31.7083 41.5608 32.0531 42.1679 32.6668C42.7749 33.2805 43.1159 34.1129 43.1159 34.9808C43.1159 35.8488 42.7749 36.6812 42.1679 37.2949C41.5608 37.9086 40.7375 38.2534 39.8791 38.2534Z" fill="white"/>
<defs>
<filter id="filter0_d_47_116" x="0" y="0" width="68" height="68" filterUnits="userSpaceOnUse" color-interpolation-filters="sRGB">
<feFlood flood-opacity="0" result="BackgroundImageFix"/>
<feColorMatrix in="SourceAlpha" type="matrix" values="0 0 0 0 0 0 0 0 0 0 0 0 0 0 0 0 0 0 127 0" result="hardAlpha"/>
<feOffset dy="4"/>
<feGaussianBlur stdDeviation="2"/>
<feComposite in2="hardAlpha" operator="out"/>
<feColorMatrix type="matrix" values="0 0 0 0 0 0 0 0 0 0 0 0 0 0 0 0 0 0 0.25 0"/>
<feBlend mode="normal" in2="BackgroundImageFix" result="effect1_dropShadow_47_116"/>
<feBlend mode="normal" in="SourceGraphic" in2="effect1_dropShadow_47_116" result="shape"/>
</filter>
</defs>
</svg>
