<svg width="24" height="25" viewBox="0 0 24 25" fill="none" xmlns="http://www.w3.org/2000/svg">
<path d="M23.3135 13.9985C23.752 13.2734 24 12.5 24 11.5649C24 9.41577 22.1391 7.38623 19.709 7.38623H17.885C18.131 6.76074 18.3275 6.0127 18.3275 5.11377C18.3275 1.55938 16.443 0 13.564 0C10.4837 0 10.6594 4.6354 9.976 5.30273C8.83865 6.41343 7.49525 8.54722 6.538 9.375H1.6C0.71635 9.375 0 10.0746 0 10.9375V22.6562C0 23.5192 0.71635 24.2188 1.6 24.2188H4.8C5.54465 24.2188 6.1704 23.722 6.3489 23.0493C8.57435 23.0982 10.1019 24.9995 15.239 24.9995C15.6 24.9995 16 25 16.35 25C20.2059 25 21.9493 23.0751 21.997 20.3452C22.663 19.4456 23.0119 18.2396 22.864 17.0742C23.3567 16.1732 23.5472 15.1043 23.3135 13.9985ZM20.226 16.627C20.854 17.6587 20.289 19.0396 19.529 19.438C19.914 21.8198 18.6486 22.6558 16.873 22.6558H14.982C11.4001 22.6558 9.08055 20.8091 6.4 20.8091V11.7188H6.946C8.364 11.7188 10.345 8.25732 11.673 6.95996C13.091 5.57519 12.6185 3.26709 13.564 2.34375C15.9275 2.34375 15.9275 3.9541 15.9275 5.11377C15.9275 7.02637 14.5095 7.8833 14.5095 9.72998H19.709C20.7645 9.72998 21.5955 10.6533 21.6 11.5767C21.6045 12.4995 20.959 13.4229 20.4865 13.4229C21.161 14.1335 21.305 15.6316 20.226 16.627ZM4.4 21.0938C4.4 21.741 3.86275 22.2656 3.2 22.2656C2.53725 22.2656 2 21.741 2 21.0938C2 20.4465 2.53725 19.9219 3.2 19.9219C3.86275 19.9219 4.4 20.4465 4.4 21.0938Z" fill="#5B5B5B"/>
</svg>
